<svg width="28" height="26" viewBox="0 0 28 26" fill="none" xmlns="http://www.w3.org/2000/svg">
<path d="M0 3.0202C0 2.14476 0.306406 1.42254 0.919192 0.853535C1.53198 0.284503 2.32863 0 3.30909 0C4.27206 0 5.05117 0.280117 5.64646 0.840404C6.25925 1.41818 6.56566 2.17103 6.56566 3.09899C6.56566 3.93939 6.26802 4.63971 5.67273 5.2C5.05994 5.77778 4.25455 6.06667 3.25657 6.06667H3.2303C2.26733 6.06667 1.48822 5.77778 0.892929 5.2C0.297634 4.62222 0 3.89561 0 3.0202ZM0.341414 26V8.45657H6.17172V26H0.341414ZM9.40202 26H15.2323V16.204C15.2323 15.5912 15.3024 15.1185 15.4424 14.7859C15.6875 14.1906 16.0596 13.6872 16.5586 13.2758C17.0576 12.8643 17.6835 12.6586 18.4364 12.6586C20.3973 12.6586 21.3778 13.9805 21.3778 16.6242V26H27.2081V15.9414C27.2081 13.3502 26.5953 11.3848 25.3697 10.0455C24.1441 8.70606 22.5246 8.03636 20.5111 8.03636C18.2525 8.03636 16.4929 9.00808 15.2323 10.9515V11.004H15.2061L15.2323 10.9515V8.45657H9.40202C9.43703 9.01683 9.45455 10.7589 9.45455 13.6828C9.45455 16.6067 9.43703 20.7124 9.40202 26Z" fill="white"/>
</svg>
