<svg width="28" height="27" viewBox="0 0 28 27" fill="none" xmlns="http://www.w3.org/2000/svg">
<g clip-path="url(#clip0_0_919)">
<path d="M27.1702 5.84641C26.2023 6.28638 25.1589 6.57551 24.0778 6.71379C25.1841 6.04754 26.0389 4.9916 26.4411 3.72197C25.3978 4.3505 24.2413 4.79047 23.0219 5.04189C22.0288 3.96081 20.6335 3.33228 19.0496 3.33228C16.0955 3.33228 13.6819 5.74585 13.6819 8.7251C13.6819 9.1525 13.7322 9.56733 13.8202 9.95702C9.34501 9.73075 5.36011 7.58116 2.70769 4.32536C2.24258 5.11731 1.9786 6.04754 1.9786 7.02805C1.9786 8.90109 2.9214 10.5604 4.37959 11.5032C3.48708 11.5032 2.65741 11.2518 1.92831 10.8747V10.9124C1.92831 13.5271 3.78877 15.7144 6.25262 16.2046C5.46159 16.4211 4.63113 16.4512 3.82648 16.2926C4.16791 17.3643 4.83658 18.302 5.7385 18.9739C6.64043 19.6458 7.73024 20.0182 8.85475 20.0387C6.94858 21.5477 4.58575 22.3634 2.15458 22.3517C1.72718 22.3517 1.29978 22.3266 0.872375 22.2763C3.2608 23.8099 6.10178 24.7024 9.14388 24.7024C19.0496 24.7024 24.4927 16.4812 24.4927 9.35363C24.4927 9.11479 24.4927 8.88851 24.4801 8.64967C25.536 7.89543 26.4411 6.94006 27.1702 5.84641Z" fill="white"/>
</g>
<defs>
<clipPath id="clip0_0_919">
<rect width="26.2979" height="26.2979" fill="white" transform="translate(0.872375 0.702148)"/>
</clipPath>
</defs>
</svg>
