<svg width="27" height="26" viewBox="0 0 27 26" fill="none" xmlns="http://www.w3.org/2000/svg">
<g clip-path="url(#clip0_0_915)">
<mask id="path-1-inside-1_0_915" fill="white">
<path d="M19.0806 15.6C19.1846 14.742 19.2626 13.884 19.2626 13C19.2626 12.116 19.1846 11.258 19.0806 10.4H23.4746C23.6826 11.232 23.8126 12.103 23.8126 13C23.8126 13.897 23.6826 14.768 23.4746 15.6M16.7796 22.828C17.5596 21.385 18.1576 19.825 18.5736 18.2H22.4086C21.1491 20.3688 19.1509 22.0116 16.7796 22.828ZM16.4546 15.6H10.3706C10.2406 14.742 10.1626 13.884 10.1626 13C10.1626 12.116 10.2406 11.245 10.3706 10.4H16.4546C16.5716 11.245 16.6626 12.116 16.6626 13C16.6626 13.884 16.5716 14.742 16.4546 15.6ZM13.4126 23.348C12.3336 21.788 11.4626 20.059 10.9296 18.2H15.8956C15.3626 20.059 14.4916 21.788 13.4126 23.348ZM8.2126 7.8H4.4166C5.66311 5.62538 7.65983 3.97993 10.0326 3.172C9.2526 4.615 8.6676 6.175 8.2126 7.8ZM4.4166 18.2H8.2126C8.6676 19.825 9.2526 21.385 10.0326 22.828C7.66481 22.0112 5.6709 20.368 4.4166 18.2ZM3.3506 15.6C3.1426 14.768 3.0126 13.897 3.0126 13C3.0126 12.103 3.1426 11.232 3.3506 10.4H7.7446C7.6406 11.258 7.5626 12.116 7.5626 13C7.5626 13.884 7.6406 14.742 7.7446 15.6M13.4126 2.639C14.4916 4.199 15.3626 5.941 15.8956 7.8H10.9296C11.4626 5.941 12.3336 4.199 13.4126 2.639ZM22.4086 7.8H18.5736C18.1667 6.18989 17.5642 4.63566 16.7796 3.172C19.1716 3.991 21.1606 5.642 22.4086 7.8ZM13.4126 0C6.2236 0 0.412598 5.85 0.412598 13C0.412598 16.4478 1.78224 19.7544 4.22021 22.1924C5.42737 23.3995 6.86048 24.3571 8.43771 25.0104C10.0149 25.6637 11.7054 26 13.4126 26C16.8604 26 20.167 24.6304 22.605 22.1924C25.043 19.7544 26.4126 16.4478 26.4126 13C26.4126 11.2928 26.0763 9.60235 25.423 8.02512C24.7697 6.44788 23.8121 5.01477 22.605 3.80761C21.3978 2.60045 19.9647 1.64288 18.3875 0.989566C16.8102 0.336255 15.1198 0 13.4126 0Z"/>
</mask>
<path d="M19.0806 15.6C19.1846 14.742 19.2626 13.884 19.2626 13C19.2626 12.116 19.1846 11.258 19.0806 10.4H23.4746C23.6826 11.232 23.8126 12.103 23.8126 13C23.8126 13.897 23.6826 14.768 23.4746 15.6M16.7796 22.828C17.5596 21.385 18.1576 19.825 18.5736 18.2H22.4086C21.1491 20.3688 19.1509 22.0116 16.7796 22.828ZM16.4546 15.6H10.3706C10.2406 14.742 10.1626 13.884 10.1626 13C10.1626 12.116 10.2406 11.245 10.3706 10.4H16.4546C16.5716 11.245 16.6626 12.116 16.6626 13C16.6626 13.884 16.5716 14.742 16.4546 15.6ZM13.4126 23.348C12.3336 21.788 11.4626 20.059 10.9296 18.2H15.8956C15.3626 20.059 14.4916 21.788 13.4126 23.348ZM8.2126 7.8H4.4166C5.66311 5.62538 7.65983 3.97993 10.0326 3.172C9.2526 4.615 8.6676 6.175 8.2126 7.8ZM4.4166 18.2H8.2126C8.6676 19.825 9.2526 21.385 10.0326 22.828C7.66481 22.0112 5.6709 20.368 4.4166 18.2ZM3.3506 15.6C3.1426 14.768 3.0126 13.897 3.0126 13C3.0126 12.103 3.1426 11.232 3.3506 10.4H7.7446C7.6406 11.258 7.5626 12.116 7.5626 13C7.5626 13.884 7.6406 14.742 7.7446 15.6M13.4126 2.639C14.4916 4.199 15.3626 5.941 15.8956 7.8H10.9296C11.4626 5.941 12.3336 4.199 13.4126 2.639ZM22.4086 7.8H18.5736C18.1667 6.18989 17.5642 4.63566 16.7796 3.172C19.1716 3.991 21.1606 5.642 22.4086 7.8ZM13.4126 0C6.2236 0 0.412598 5.85 0.412598 13C0.412598 16.4478 1.78224 19.7544 4.22021 22.1924C5.42737 23.3995 6.86048 24.3571 8.43771 25.0104C10.0149 25.6637 11.7054 26 13.4126 26C16.8604 26 20.167 24.6304 22.605 22.1924C25.043 19.7544 26.4126 16.4478 26.4126 13C26.4126 11.2928 26.0763 9.60235 25.423 8.02512C24.7697 6.44788 23.8121 5.01477 22.605 3.80761C21.3978 2.60045 19.9647 1.64288 18.3875 0.989566C16.8102 0.336255 15.1198 0 13.4126 0Z" fill="white"/>
<path d="M19.0806 10.4V10.2H18.8549L18.8821 10.4241L19.0806 10.4ZM23.4746 10.4L23.6686 10.3515L23.6308 10.2H23.4746V10.4ZM16.7796 22.828L16.6037 22.7329L16.3598 23.184L16.8447 23.0171L16.7796 22.828ZM18.5736 18.2V18H18.4183L18.3798 18.1504L18.5736 18.2ZM22.4086 18.2L22.5815 18.3004L22.756 18H22.4086V18.2ZM16.4546 15.6V15.8H16.6292L16.6528 15.627L16.4546 15.6ZM10.3706 15.6L10.1729 15.63L10.1986 15.8H10.3706V15.6ZM10.3706 10.4V10.2H10.199L10.1729 10.3696L10.3706 10.4ZM16.4546 10.4L16.6527 10.3726L16.6288 10.2H16.4546V10.4ZM13.4126 23.348L13.2481 23.4618L13.4126 23.6996L13.5771 23.4618L13.4126 23.348ZM10.9296 18.2V18H10.6642L10.7373 18.2551L10.9296 18.2ZM15.8956 18.2L16.0879 18.2551L16.161 18H15.8956V18.2ZM8.2126 7.8V8H8.36429L8.40519 7.85393L8.2126 7.8ZM4.4166 7.8L4.24308 7.70054L4.07143 8H4.4166V7.8ZM10.0326 3.172L10.2085 3.2671L10.4512 2.81819L9.96813 2.98267L10.0326 3.172ZM4.4166 18.2V18H4.06983L4.24348 18.3002L4.4166 18.2ZM8.2126 18.2L8.40519 18.1461L8.36429 18H8.2126V18.2ZM10.0326 22.828L9.96737 23.0171L10.4526 23.1845L10.2085 22.7329L10.0326 22.828ZM3.3506 10.4V10.2H3.19444L3.15657 10.3515L3.3506 10.4ZM7.7446 10.4L7.94314 10.4241L7.9703 10.2H7.7446V10.4ZM13.4126 2.639L13.5771 2.52523L13.4126 2.28742L13.2481 2.52523L13.4126 2.639ZM15.8956 7.8V8H16.161L16.0879 7.74488L15.8956 7.8ZM10.9296 7.8L10.7373 7.74488L10.6642 8H10.9296V7.8ZM22.4086 7.8V8H22.7553L22.5817 7.69987L22.4086 7.8ZM18.5736 7.8L18.3797 7.849L18.4179 8H18.5736V7.8ZM16.7796 3.172L16.8444 2.98278L16.3629 2.81791L16.6033 3.26649L16.7796 3.172ZM13.4126 0V-0.2V0ZM13.4126 26V26.2V26ZM19.2791 15.6241C19.3836 14.7625 19.4626 13.8955 19.4626 13H19.0626C19.0626 13.8725 18.9856 14.7215 18.8821 15.5759L19.2791 15.6241ZM19.4626 13C19.4626 12.1045 19.3836 11.2375 19.2791 10.3759L18.8821 10.4241C18.9856 11.2785 19.0626 12.1275 19.0626 13H19.4626ZM19.0806 10.6H23.4746V10.2H19.0806V10.6ZM23.2806 10.4485C23.4854 11.2678 23.6126 12.1223 23.6126 13H24.0126C24.0126 12.0837 23.8798 11.1962 23.6686 10.3515L23.2806 10.4485ZM23.6126 13C23.6126 13.8777 23.4854 14.7322 23.2806 15.5515L23.6686 15.6485C23.8798 14.8038 24.0126 13.9163 24.0126 13H23.6126ZM16.9555 22.9231C17.7438 21.4647 18.3476 19.8893 18.7673 18.2496L18.3798 18.1504C17.9676 19.7607 17.3754 21.3053 16.6037 22.7329L16.9555 22.9231ZM18.5736 18.4H22.4086V18H18.5736V18.4ZM22.2356 18.0996C21.0003 20.2268 19.0404 21.8381 16.7145 22.6389L16.8447 23.0171C19.2615 22.1851 21.2979 20.5107 22.5815 18.3004L22.2356 18.0996ZM16.4546 15.4H10.3706V15.8H16.4546V15.4ZM10.5683 15.57C10.4395 14.7199 10.3626 13.8721 10.3626 13H9.9626C9.9626 13.8959 10.0417 14.7641 10.1729 15.63L10.5683 15.57ZM10.3626 13C10.3626 12.1277 10.4396 11.267 10.5683 10.4304L10.1729 10.3696C10.0416 11.223 9.9626 12.1043 9.9626 13H10.3626ZM10.3706 10.6H16.4546V10.2H10.3706V10.6ZM16.2565 10.4274C16.3729 11.2684 16.4626 12.1292 16.4626 13H16.8626C16.8626 12.1028 16.7703 11.2216 16.6527 10.3726L16.2565 10.4274ZM16.4626 13C16.4626 13.8707 16.373 14.7184 16.2564 15.573L16.6528 15.627C16.7702 14.7656 16.8626 13.8973 16.8626 13H16.4626ZM13.5771 23.2342C12.5086 21.6895 11.648 19.98 11.1219 18.1449L10.7373 18.2551C11.2772 20.138 12.1586 21.8865 13.2481 23.4618L13.5771 23.2342ZM10.9296 18.4H15.8956V18H10.9296V18.4ZM15.7033 18.1449C15.1772 19.98 14.3166 21.6895 13.2481 23.2342L13.5771 23.4618C14.6666 21.8865 15.548 20.138 16.0879 18.2551L15.7033 18.1449ZM8.2126 7.6H4.4166V8H8.2126V7.6ZM4.59011 7.89946C5.81242 5.76707 7.77037 4.15357 10.0971 3.36133L9.96813 2.98267C7.54929 3.80629 5.5138 5.48369 4.24308 7.70054L4.59011 7.89946ZM9.85666 3.0769C9.06796 4.53597 8.47797 6.1105 8.02 7.74607L8.40519 7.85393C8.85723 6.2395 9.43723 4.69403 10.2085 3.2671L9.85666 3.0769ZM4.4166 18.4H8.2126V18H4.4166V18.4ZM8.02 18.2539C8.47797 19.8895 9.06796 21.464 9.85666 22.9231L10.2085 22.7329C9.43723 21.306 8.85723 19.7605 8.40519 18.1461L8.02 18.2539ZM10.0978 22.6389C7.77552 21.8378 5.81992 20.2262 4.58971 18.0998L4.24348 18.3002C5.52188 20.5098 7.5541 22.1845 9.96737 23.0171L10.0978 22.6389ZM3.54463 15.5515C3.33981 14.7322 3.2126 13.8777 3.2126 13H2.8126C2.8126 13.9163 2.94539 14.8038 3.15657 15.6485L3.54463 15.5515ZM3.2126 13C3.2126 12.1223 3.33981 11.2678 3.54463 10.4485L3.15657 10.3515C2.94539 11.1962 2.8126 12.0837 2.8126 13H3.2126ZM3.3506 10.6H7.7446V10.2H3.3506V10.6ZM7.54605 10.3759C7.44161 11.2375 7.3626 12.1045 7.3626 13H7.7626C7.7626 12.1275 7.83958 11.2785 7.94314 10.4241L7.54605 10.3759ZM7.3626 13C7.3626 13.8955 7.44161 14.7625 7.54605 15.6241L7.94314 15.5759C7.83958 14.7215 7.7626 13.8725 7.7626 13H7.3626ZM13.2481 2.75277C14.3163 4.29718 15.1771 6.0196 15.7033 7.85512L16.0879 7.74488C15.5481 5.8624 14.6669 4.10082 13.5771 2.52523L13.2481 2.75277ZM15.8956 7.6H10.9296V8H15.8956V7.6ZM11.1219 7.85512C11.6481 6.0196 12.5089 4.29718 13.5771 2.75277L13.2481 2.52523C12.1583 4.10082 11.2771 5.8624 10.7373 7.74488L11.1219 7.85512ZM22.4086 7.6H18.5736V8H22.4086V7.6ZM18.7675 7.751C18.3566 6.12507 17.7482 4.55556 16.9559 3.07751L16.6033 3.26649C17.3803 4.71577 17.9768 6.25472 18.3797 7.849L18.7675 7.751ZM16.7148 3.36122C19.0608 4.16447 21.0115 5.78364 22.2355 7.90012L22.5817 7.69987C21.3097 5.50036 19.2824 3.81753 16.8444 2.98278L16.7148 3.36122ZM13.4126 -0.2C6.11275 -0.2 0.212598 5.73993 0.212598 13H0.612598C0.612598 5.96007 6.33444 0.2 13.4126 0.2V-0.2ZM0.212598 13C0.212598 16.5009 1.60331 19.8583 4.07879 22.3338L4.36163 22.051C1.96117 19.6505 0.612598 16.3948 0.612598 13H0.212598ZM4.07879 22.3338C5.30452 23.5595 6.75968 24.5318 8.36118 25.1952L8.51425 24.8257C6.96128 24.1824 5.55022 23.2396 4.36163 22.051L4.07879 22.3338ZM8.36118 25.1952C9.96267 25.8586 11.6791 26.2 13.4126 26.2V25.8C11.7317 25.8 10.0672 25.4689 8.51425 24.8257L8.36118 25.1952ZM13.4126 26.2C16.9135 26.2 20.2709 24.8093 22.7464 22.3338L22.4636 22.051C20.0631 24.4514 16.8074 25.8 13.4126 25.8V26.2ZM22.7464 22.3338C25.2219 19.8583 26.6126 16.5009 26.6126 13H26.2126C26.2126 16.3948 24.864 19.6505 22.4636 22.051L22.7464 22.3338ZM26.6126 13C26.6126 11.2666 26.2712 9.55008 25.6078 7.94858L25.2383 8.10165C25.8815 9.65462 26.2126 11.3191 26.2126 13H26.6126ZM25.6078 7.94858C24.9444 6.34708 23.9721 4.89192 22.7464 3.66619L22.4636 3.94903C23.6522 5.13762 24.595 6.54868 25.2383 8.10165L25.6078 7.94858ZM22.7464 3.66619C21.5207 2.44046 20.0655 1.46815 18.464 0.80479L18.3109 1.17434C19.8639 1.8176 21.275 2.76044 22.4636 3.94903L22.7464 3.66619ZM18.464 0.80479C16.8625 0.141428 15.146 -0.2 13.4126 -0.2V0.2C15.0935 0.2 16.758 0.531082 18.3109 1.17434L18.464 0.80479Z" fill="#212121" mask="url(#path-1-inside-1_0_915)"/>
</g>
<defs>
<clipPath id="clip0_0_915">
<rect width="26" height="26" fill="white" transform="translate(0.412598)"/>
</clipPath>
</defs>
</svg>
