<svg width="1215" height="108" viewBox="0 0 1215 108" fill="none" xmlns="http://www.w3.org/2000/svg">
<path d="M82.3333 6C82.3333 3.05448 79.9455 0.666667 77 0.666667C74.0545 0.666666 71.6667 3.05448 71.6667 6C71.6667 8.94552 74.0545 11.3333 77 11.3333C79.9455 11.3333 82.3333 8.94552 82.3333 6ZM77 5L1 4.99999L1 6.99999L77 7L77 5Z" fill="#FCFDFF"/>
<path d="M2 78L2 6" stroke="#FCFDFF" stroke-width="2"/>
<path d="M22 100C21.4477 100 21 100.448 21 101C21 101.552 21.4477 102 22 102V100ZM265 100L22 100V102L265 102V100Z" fill="#FCFDFF"/>
<path d="M284 51C283.448 51 283 51.4477 283 52C283 52.5523 283.448 53 284 53V51ZM519 51L284 51V53L519 53V51Z" fill="#FCFDFF"/>
<path d="M20.9219 101.658C21.2781 102.08 21.8555 102.08 22.2116 101.658C22.5678 101.236 22.5678 100.552 22.2116 100.13L20.9219 101.658ZM0.921902 77.9545L20.9219 101.658L22.2116 100.13L2.21164 76.4259L0.921902 77.9545Z" fill="#FCFDFF"/>
<path d="M539.355 79.0605C539.711 79.4826 540.289 79.4826 540.645 79.0605C541.001 78.6384 541.001 77.9541 540.645 77.532L539.355 79.0605ZM517.355 52.9865L539.355 79.0605L540.645 77.532L518.645 51.4579L517.355 52.9865Z" fill="#FCFDFF"/>
<path d="M1145.33 7C1145.33 4.05448 1142.95 1.66667 1140 1.66667C1137.05 1.66667 1134.67 4.05448 1134.67 7C1134.67 9.94552 1137.05 12.3333 1140 12.3333C1142.95 12.3333 1145.33 9.94552 1145.33 7ZM1214 6L1140 6V8L1214 8V6Z" fill="#FCFDFF"/>
<path d="M1213 76L1213 7" stroke="#FCFDFF" stroke-width="2"/>
<path d="M1191 103C1191.55 103 1192 102.552 1192 102C1192 101.448 1191.55 101 1191 101V103ZM1191 101L1110 101V103L1191 103V101Z" fill="#FCFDFF"/>
<path d="M1165 79C1165.55 79 1166 78.5523 1166 78C1166 77.4477 1165.55 77 1165 77V79ZM1165 77L540 77V79L1165 79V77Z" fill="#FCFDFF"/>
<path d="M1213.64 76.6902C1214 76.2681 1214 75.5837 1213.64 75.1616C1213.29 74.7395 1212.71 74.7395 1212.36 75.1616L1213.64 76.6902ZM1191.64 102.764L1213.64 76.6902L1212.36 75.1616L1190.36 101.236L1191.64 102.764Z" fill="#FCFDFF"/>
<path d="M385.707 72.7071C386.098 72.3166 386.098 71.6834 385.707 71.2929L379.343 64.9289C378.953 64.5384 378.319 64.5384 377.929 64.9289C377.538 65.3195 377.538 65.9526 377.929 66.3431L383.586 72L377.929 77.6569C377.538 78.0474 377.538 78.6805 377.929 79.0711C378.319 79.4616 378.953 79.4616 379.343 79.0711L385.707 72.7071ZM385 71L288 71V73L385 73V71Z" fill="#FCFDFF"/>
<path d="M264.355 100.051C263.999 100.473 263.999 101.157 264.355 101.579C264.711 102.001 265.289 102.001 265.645 101.579L264.355 100.051ZM265.645 101.579L289.645 73.1348L288.355 71.6062L264.355 100.051L265.645 101.579Z" fill="#FCFDFF"/>
<path d="M263.355 76.3468C262.999 76.7689 262.999 77.4533 263.355 77.8754C263.711 78.2975 264.289 78.2975 264.645 77.8754L263.355 76.3468ZM264.645 77.8754L285.645 52.9865L284.355 51.4579L263.355 76.3468L264.645 77.8754Z" fill="#FCFDFF"/>
<circle cx="260" cy="81" r="5" stroke="#FCFDFF" stroke-width="2"/>
<circle cx="1170" cy="77" r="5" stroke="#FCFDFF" stroke-width="2"/>
<path d="M291.216 93V85.914L289.374 86.544V85.584L292.206 84.558V93H291.216ZM289.128 93V92.052H294.264V93H289.128ZM299.127 93.144C298.523 93.144 298.017 93.002 297.609 92.718C297.205 92.43 296.899 92.04 296.691 91.548C296.487 91.056 296.385 90.504 296.385 89.892C296.385 89.28 296.487 88.684 296.691 88.104C296.899 87.52 297.195 86.98 297.579 86.484C297.963 85.984 298.419 85.558 298.947 85.206C299.475 84.854 300.061 84.604 300.705 84.456V85.278C300.213 85.418 299.747 85.65 299.307 85.974C298.871 86.298 298.499 86.678 298.191 87.114C297.887 87.55 297.687 88.002 297.591 88.47C297.775 88.246 298.017 88.074 298.317 87.954C298.617 87.83 298.957 87.768 299.337 87.768C299.817 87.768 300.241 87.892 300.609 88.14C300.981 88.384 301.271 88.704 301.479 89.1C301.691 89.496 301.797 89.92 301.797 90.372C301.797 90.9 301.677 91.374 301.437 91.794C301.201 92.21 300.879 92.54 300.471 92.784C300.067 93.024 299.619 93.144 299.127 93.144ZM299.097 92.238C299.445 92.238 299.749 92.162 300.009 92.01C300.269 91.854 300.473 91.644 300.621 91.38C300.769 91.112 300.843 90.808 300.843 90.468C300.843 89.932 300.685 89.494 300.369 89.154C300.057 88.81 299.633 88.638 299.097 88.638C298.761 88.638 298.461 88.718 298.197 88.878C297.933 89.034 297.725 89.25 297.573 89.526C297.425 89.798 297.351 90.112 297.351 90.468C297.351 90.808 297.427 91.112 297.579 91.38C297.735 91.644 297.945 91.854 298.209 92.01C298.473 92.162 298.769 92.238 299.097 92.238ZM306.485 93.162C306.253 93.162 306.061 93.082 305.909 92.922C305.757 92.758 305.681 92.572 305.681 92.364C305.681 92.156 305.757 91.97 305.909 91.806C306.061 91.642 306.253 91.56 306.485 91.56C306.713 91.56 306.903 91.642 307.055 91.806C307.211 91.97 307.289 92.156 307.289 92.364C307.289 92.572 307.211 92.758 307.055 92.922C306.903 93.082 306.713 93.162 306.485 93.162ZM313.88 93.144C313.324 93.144 312.858 93.018 312.482 92.766C312.106 92.514 311.806 92.178 311.582 91.758C311.362 91.334 311.204 90.866 311.108 90.354C311.012 89.842 310.964 89.324 310.964 88.8C310.964 88.436 310.99 88.054 311.042 87.654C311.094 87.254 311.184 86.866 311.312 86.49C311.44 86.11 311.614 85.768 311.834 85.464C312.058 85.156 312.338 84.912 312.674 84.732C313.01 84.548 313.412 84.456 313.88 84.456C314.44 84.456 314.908 84.584 315.284 84.84C315.66 85.092 315.958 85.43 316.178 85.854C316.402 86.278 316.562 86.746 316.658 87.258C316.754 87.77 316.802 88.284 316.802 88.8C316.802 89.168 316.774 89.552 316.718 89.952C316.666 90.348 316.576 90.736 316.448 91.116C316.32 91.492 316.144 91.834 315.92 92.142C315.696 92.45 315.416 92.694 315.08 92.874C314.748 93.054 314.348 93.144 313.88 93.144ZM313.88 92.238C314.276 92.238 314.596 92.134 314.84 91.926C315.088 91.714 315.28 91.436 315.416 91.092C315.552 90.748 315.644 90.376 315.692 89.976C315.744 89.572 315.77 89.18 315.77 88.8C315.77 88.38 315.74 87.966 315.68 87.558C315.624 87.15 315.526 86.782 315.386 86.454C315.25 86.122 315.058 85.856 314.81 85.656C314.566 85.456 314.256 85.356 313.88 85.356C313.488 85.356 313.166 85.464 312.914 85.68C312.662 85.892 312.468 86.17 312.332 86.514C312.2 86.858 312.108 87.232 312.056 87.636C312.004 88.036 311.978 88.424 311.978 88.8C311.978 89.224 312.006 89.64 312.062 90.048C312.118 90.456 312.216 90.826 312.356 91.158C312.496 91.486 312.69 91.748 312.938 91.944C313.186 92.14 313.5 92.238 313.88 92.238ZM313.88 89.586C313.66 89.586 313.476 89.508 313.328 89.352C313.18 89.192 313.106 89.01 313.106 88.806C313.106 88.606 313.18 88.428 313.328 88.272C313.476 88.112 313.66 88.032 313.88 88.032C314.104 88.032 314.29 88.112 314.438 88.272C314.586 88.428 314.66 88.606 314.66 88.806C314.66 89.01 314.586 89.192 314.438 89.352C314.29 89.508 314.104 89.586 313.88 89.586ZM318.682 93C318.682 92.472 318.742 92.016 318.862 91.632C318.982 91.248 319.152 90.91 319.372 90.618C319.592 90.326 319.848 90.058 320.14 89.814C320.432 89.566 320.752 89.32 321.1 89.076C321.392 88.864 321.664 88.65 321.916 88.434C322.172 88.218 322.378 87.982 322.534 87.726C322.69 87.47 322.768 87.178 322.768 86.85C322.768 86.422 322.64 86.066 322.384 85.782C322.128 85.498 321.776 85.356 321.328 85.356C320.852 85.356 320.468 85.474 320.176 85.71C319.884 85.946 319.686 86.254 319.582 86.634L318.706 86.238C318.802 85.902 318.97 85.6 319.21 85.332C319.454 85.064 319.756 84.852 320.116 84.696C320.476 84.536 320.88 84.456 321.328 84.456C321.844 84.456 322.284 84.556 322.648 84.756C323.016 84.956 323.298 85.236 323.494 85.596C323.69 85.952 323.788 86.366 323.788 86.838C323.788 87.338 323.684 87.764 323.476 88.116C323.272 88.464 323 88.778 322.66 89.058C322.32 89.334 321.95 89.608 321.55 89.88C321.266 90.076 320.99 90.286 320.722 90.51C320.458 90.73 320.238 90.968 320.062 91.224C319.886 91.476 319.786 91.752 319.762 92.052H323.86V93H318.682ZM328.669 93.162C328.437 93.162 328.245 93.082 328.093 92.922C327.941 92.758 327.865 92.572 327.865 92.364C327.865 92.156 327.941 91.97 328.093 91.806C328.245 91.642 328.437 91.56 328.669 91.56C328.897 91.56 329.087 91.642 329.239 91.806C329.395 91.97 329.473 92.156 329.473 92.364C329.473 92.572 329.395 92.758 329.239 92.922C329.087 93.082 328.897 93.162 328.669 93.162ZM333.471 93C333.471 92.472 333.531 92.016 333.651 91.632C333.771 91.248 333.941 90.91 334.161 90.618C334.381 90.326 334.637 90.058 334.929 89.814C335.221 89.566 335.541 89.32 335.889 89.076C336.181 88.864 336.453 88.65 336.705 88.434C336.961 88.218 337.167 87.982 337.323 87.726C337.479 87.47 337.557 87.178 337.557 86.85C337.557 86.422 337.429 86.066 337.173 85.782C336.917 85.498 336.565 85.356 336.117 85.356C335.641 85.356 335.257 85.474 334.965 85.71C334.673 85.946 334.475 86.254 334.371 86.634L333.495 86.238C333.591 85.902 333.759 85.6 333.999 85.332C334.243 85.064 334.545 84.852 334.905 84.696C335.265 84.536 335.669 84.456 336.117 84.456C336.633 84.456 337.073 84.556 337.437 84.756C337.805 84.956 338.087 85.236 338.283 85.596C338.479 85.952 338.577 86.366 338.577 86.838C338.577 87.338 338.473 87.764 338.265 88.116C338.061 88.464 337.789 88.778 337.449 89.058C337.109 89.334 336.739 89.608 336.339 89.88C336.055 90.076 335.779 90.286 335.511 90.51C335.247 90.73 335.027 90.968 334.851 91.224C334.675 91.476 334.575 91.752 334.551 92.052H338.649V93H333.471ZM344.31 93V90.84H340.47V90.294L344.544 84.6H345.288V89.976H346.464V90.84H345.288V93H344.31ZM341.73 89.976H344.31V86.286L341.73 89.976Z" fill="white"/>
<path d="M397.216 75V67.914L395.374 68.544V67.584L398.206 66.558V75H397.216ZM395.128 75V74.052H400.264V75H395.128ZM404.041 75C404.041 74.08 404.119 73.188 404.275 72.324C404.431 71.456 404.701 70.6 405.085 69.756C405.473 68.908 406.009 68.052 406.693 67.188L406.939 67.476H402.577V66.6H407.599V67.314C407.059 67.95 406.619 68.614 406.279 69.306C405.939 69.994 405.677 70.68 405.493 71.364C405.313 72.044 405.189 72.694 405.121 73.314C405.057 73.934 405.025 74.496 405.025 75H404.041ZM412.485 75.162C412.253 75.162 412.061 75.082 411.909 74.922C411.757 74.758 411.681 74.572 411.681 74.364C411.681 74.156 411.757 73.97 411.909 73.806C412.061 73.642 412.253 73.56 412.485 73.56C412.713 73.56 412.903 73.642 413.055 73.806C413.211 73.97 413.289 74.156 413.289 74.364C413.289 74.572 413.211 74.758 413.055 74.922C412.903 75.082 412.713 75.162 412.485 75.162ZM419.88 75.144C419.324 75.144 418.858 75.018 418.482 74.766C418.106 74.514 417.806 74.178 417.582 73.758C417.362 73.334 417.204 72.866 417.108 72.354C417.012 71.842 416.964 71.324 416.964 70.8C416.964 70.436 416.99 70.054 417.042 69.654C417.094 69.254 417.184 68.866 417.312 68.49C417.44 68.11 417.614 67.768 417.834 67.464C418.058 67.156 418.338 66.912 418.674 66.732C419.01 66.548 419.412 66.456 419.88 66.456C420.44 66.456 420.908 66.584 421.284 66.84C421.66 67.092 421.958 67.43 422.178 67.854C422.402 68.278 422.562 68.746 422.658 69.258C422.754 69.77 422.802 70.284 422.802 70.8C422.802 71.168 422.774 71.552 422.718 71.952C422.666 72.348 422.576 72.736 422.448 73.116C422.32 73.492 422.144 73.834 421.92 74.142C421.696 74.45 421.416 74.694 421.08 74.874C420.748 75.054 420.348 75.144 419.88 75.144ZM419.88 74.238C420.276 74.238 420.596 74.134 420.84 73.926C421.088 73.714 421.28 73.436 421.416 73.092C421.552 72.748 421.644 72.376 421.692 71.976C421.744 71.572 421.77 71.18 421.77 70.8C421.77 70.38 421.74 69.966 421.68 69.558C421.624 69.15 421.526 68.782 421.386 68.454C421.25 68.122 421.058 67.856 420.81 67.656C420.566 67.456 420.256 67.356 419.88 67.356C419.488 67.356 419.166 67.464 418.914 67.68C418.662 67.892 418.468 68.17 418.332 68.514C418.2 68.858 418.108 69.232 418.056 69.636C418.004 70.036 417.978 70.424 417.978 70.8C417.978 71.224 418.006 71.64 418.062 72.048C418.118 72.456 418.216 72.826 418.356 73.158C418.496 73.486 418.69 73.748 418.938 73.944C419.186 74.14 419.5 74.238 419.88 74.238ZM419.88 71.586C419.66 71.586 419.476 71.508 419.328 71.352C419.18 71.192 419.106 71.01 419.106 70.806C419.106 70.606 419.18 70.428 419.328 70.272C419.476 70.112 419.66 70.032 419.88 70.032C420.104 70.032 420.29 70.112 420.438 70.272C420.586 70.428 420.66 70.606 420.66 70.806C420.66 71.01 420.586 71.192 420.438 71.352C420.29 71.508 420.104 71.586 419.88 71.586ZM424.682 75C424.682 74.472 424.742 74.016 424.862 73.632C424.982 73.248 425.152 72.91 425.372 72.618C425.592 72.326 425.848 72.058 426.14 71.814C426.432 71.566 426.752 71.32 427.1 71.076C427.392 70.864 427.664 70.65 427.916 70.434C428.172 70.218 428.378 69.982 428.534 69.726C428.69 69.47 428.768 69.178 428.768 68.85C428.768 68.422 428.64 68.066 428.384 67.782C428.128 67.498 427.776 67.356 427.328 67.356C426.852 67.356 426.468 67.474 426.176 67.71C425.884 67.946 425.686 68.254 425.582 68.634L424.706 68.238C424.802 67.902 424.97 67.6 425.21 67.332C425.454 67.064 425.756 66.852 426.116 66.696C426.476 66.536 426.88 66.456 427.328 66.456C427.844 66.456 428.284 66.556 428.648 66.756C429.016 66.956 429.298 67.236 429.494 67.596C429.69 67.952 429.788 68.366 429.788 68.838C429.788 69.338 429.684 69.764 429.476 70.116C429.272 70.464 429 70.778 428.66 71.058C428.32 71.334 427.95 71.608 427.55 71.88C427.266 72.076 426.99 72.286 426.722 72.51C426.458 72.73 426.238 72.968 426.062 73.224C425.886 73.476 425.786 73.752 425.762 74.052H429.86V75H424.682ZM434.669 75.162C434.437 75.162 434.245 75.082 434.093 74.922C433.941 74.758 433.865 74.572 433.865 74.364C433.865 74.156 433.941 73.97 434.093 73.806C434.245 73.642 434.437 73.56 434.669 73.56C434.897 73.56 435.087 73.642 435.239 73.806C435.395 73.97 435.473 74.156 435.473 74.364C435.473 74.572 435.395 74.758 435.239 74.922C435.087 75.082 434.897 75.162 434.669 75.162ZM439.471 75C439.471 74.472 439.531 74.016 439.651 73.632C439.771 73.248 439.941 72.91 440.161 72.618C440.381 72.326 440.637 72.058 440.929 71.814C441.221 71.566 441.541 71.32 441.889 71.076C442.181 70.864 442.453 70.65 442.705 70.434C442.961 70.218 443.167 69.982 443.323 69.726C443.479 69.47 443.557 69.178 443.557 68.85C443.557 68.422 443.429 68.066 443.173 67.782C442.917 67.498 442.565 67.356 442.117 67.356C441.641 67.356 441.257 67.474 440.965 67.71C440.673 67.946 440.475 68.254 440.371 68.634L439.495 68.238C439.591 67.902 439.759 67.6 439.999 67.332C440.243 67.064 440.545 66.852 440.905 66.696C441.265 66.536 441.669 66.456 442.117 66.456C442.633 66.456 443.073 66.556 443.437 66.756C443.805 66.956 444.087 67.236 444.283 67.596C444.479 67.952 444.577 68.366 444.577 68.838C444.577 69.338 444.473 69.764 444.265 70.116C444.061 70.464 443.789 70.778 443.449 71.058C443.109 71.334 442.739 71.608 442.339 71.88C442.055 72.076 441.779 72.286 441.511 72.51C441.247 72.73 441.027 72.968 440.851 73.224C440.675 73.476 440.575 73.752 440.551 74.052H444.649V75H439.471ZM450.31 75V72.84H446.47V72.294L450.544 66.6H451.288V71.976H452.464V72.84H451.288V75H450.31ZM447.73 71.976H450.31V68.286L447.73 71.976Z" fill="white"/>
<path d="M0.99996 102L1.00002 81L19 102L0.99996 102Z" fill="#FCFDFF"/>
<path d="M956 98.1536L960.308 98.1543L953.121 105.346L949 105.153L956 98.1536Z" fill="white"/>
<path d="M956 98.1536L960.308 98.1543L953.121 105.346L949 105.153L956 98.1536Z" fill="white"/>
<path d="M963 98.1536L967.308 98.1543L960.121 105.346L956 105.153L963 98.1536Z" fill="white"/>
<path d="M963 98.1536L967.308 98.1543L960.121 105.346L956 105.153L963 98.1536Z" fill="white"/>
<path d="M970 98.1536L974.308 98.1543L967.121 105.346L963 105.153L970 98.1536Z" fill="white"/>
<path d="M970 98.1536L974.308 98.1543L967.121 105.346L963 105.153L970 98.1536Z" fill="white"/>
<path d="M978 98.1536L982.308 98.1543L975.121 105.346L971 105.153L978 98.1536Z" fill="white"/>
<path d="M978 98.1536L982.308 98.1543L975.121 105.346L971 105.153L978 98.1536Z" fill="white"/>
<path d="M985 98.1536L989.308 98.1543L982.121 105.346L978 105.153L985 98.1536Z" fill="white"/>
<path d="M985 98.1536L989.308 98.1543L982.121 105.346L978 105.153L985 98.1536Z" fill="white"/>
<path d="M992 98.1536L996.308 98.1543L989.121 105.346L985 105.153L992 98.1536Z" fill="white"/>
<path d="M992 98.1536L996.308 98.1543L989.121 105.346L985 105.153L992 98.1536Z" fill="white"/>
<path d="M999 98.1536L1003.31 98.1543L996.121 105.346L992 105.153L999 98.1536Z" fill="white"/>
<path d="M999 98.1536L1003.31 98.1543L996.121 105.346L992 105.153L999 98.1536Z" fill="white"/>
<path d="M1007 98.1536L1011.31 98.1543L1004.12 105.346L1000 105.153L1007 98.1536Z" fill="white"/>
<path d="M1007 98.1536L1011.31 98.1543L1004.12 105.346L1000 105.153L1007 98.1536Z" fill="white"/>
<path d="M1014 98.1536L1018.31 98.1543L1011.12 105.346L1007 105.153L1014 98.1536Z" fill="white"/>
<path d="M1014 98.1536L1018.31 98.1543L1011.12 105.346L1007 105.153L1014 98.1536Z" fill="white"/>
<path d="M1021 98.1536L1025.31 98.1543L1018.12 105.346L1014 105.153L1021 98.1536Z" fill="white"/>
<path d="M1021 98.1536L1025.31 98.1543L1018.12 105.346L1014 105.153L1021 98.1536Z" fill="white"/>
<path d="M1028 98.1536L1032.31 98.1543L1025.12 105.346L1021 105.153L1028 98.1536Z" fill="white"/>
<path d="M1028 98.1536L1032.31 98.1543L1025.12 105.346L1021 105.153L1028 98.1536Z" fill="white"/>
<path d="M1035 98.1536L1039.31 98.1543L1032.12 105.346L1028 105.153L1035 98.1536Z" fill="white"/>
<path d="M1035 98.1536L1039.31 98.1543L1032.12 105.346L1028 105.153L1035 98.1536Z" fill="white"/>
<path d="M1043 98.1536L1047.31 98.1543L1040.12 105.346L1036 105.153L1043 98.1536Z" fill="white"/>
<path d="M1043 98.1536L1047.31 98.1543L1040.12 105.346L1036 105.153L1043 98.1536Z" fill="white"/>
<path d="M1050 98.1536L1054.31 98.1543L1047.12 105.346L1043 105.153L1050 98.1536Z" fill="white"/>
<path d="M1050 98.1536L1054.31 98.1543L1047.12 105.346L1043 105.153L1050 98.1536Z" fill="white"/>
<path d="M1057 98.1536L1061.31 98.1543L1054.12 105.346L1050 105.153L1057 98.1536Z" fill="white"/>
<path d="M1057 98.1536L1061.31 98.1543L1054.12 105.346L1050 105.153L1057 98.1536Z" fill="white"/>
<path d="M1065 98.1536L1069.31 98.1543L1062.12 105.346L1058 105.153L1065 98.1536Z" fill="white"/>
<path d="M1065 98.1536L1069.31 98.1543L1062.12 105.346L1058 105.153L1065 98.1536Z" fill="white"/>
<path d="M1072 98.1536L1076.31 98.1543L1069.12 105.346L1065 105.153L1072 98.1536Z" fill="white"/>
<path d="M1072 98.1536L1076.31 98.1543L1069.12 105.346L1065 105.153L1072 98.1536Z" fill="white"/>
<path d="M1079 98.1536L1083.31 98.1543L1076.12 105.346L1072 105.153L1079 98.1536Z" fill="white"/>
<path d="M1079 98.1536L1083.31 98.1543L1076.12 105.346L1072 105.153L1079 98.1536Z" fill="white"/>
<path d="M1086 98.1536L1090.31 98.1543L1083.12 105.346L1079 105.153L1086 98.1536Z" fill="white"/>
<path d="M1086 98.1536L1090.31 98.1543L1083.12 105.346L1079 105.153L1086 98.1536Z" fill="white"/>
<path d="M1093 98.1536L1097.31 98.1543L1090.12 105.346L1086 105.153L1093 98.1536Z" fill="white"/>
<path d="M1093 98.1536L1097.31 98.1543L1090.12 105.346L1086 105.153L1093 98.1536Z" fill="white"/>
<path d="M1100 98.1536L1104.31 98.1543L1097.12 105.346L1093 105.153L1100 98.1536Z" fill="white"/>
<path d="M1100 98.1536L1104.31 98.1543L1097.12 105.346L1093 105.153L1100 98.1536Z" fill="white"/>
<path d="M1214.49 103L1214.49 78.9999L1194.49 103L1214.49 103Z" fill="#FCFDFF"/>
</svg>
