<svg width="1230" height="110" viewBox="0 0 1230 110" fill="none" xmlns="http://www.w3.org/2000/svg">
<path d="M89.3333 6C89.3333 3.05448 86.9455 0.666667 84 0.666667C81.0545 0.666666 78.6667 3.05448 78.6667 6C78.6667 8.94552 81.0545 11.3333 84 11.3333C86.9455 11.3333 89.3333 8.94552 89.3333 6ZM84 5L8 4.99999L8 6.99999L84 7L84 5Z" fill="#FCFDFF"/>
<path d="M9 78L9 6" stroke="#FCFDFF" stroke-width="2"/>
<path d="M29 100C28.4477 100 28 100.448 28 101C28 101.552 28.4477 102 29 102V100ZM272 100L29 100V102L272 102V100Z" fill="#FCFDFF"/>
<path d="M292 51C291.448 51 291 51.4477 291 52C291 52.5523 291.448 53 292 53V51ZM525 51L292 51V53L525 53V51Z" fill="#FCFDFF"/>
<path d="M27.922 101.658C28.2782 102.081 28.8556 102.081 29.2118 101.658C29.5679 101.236 29.5679 100.552 29.2118 100.13L27.922 101.658ZM7.92202 77.9547L27.922 101.658L29.2118 100.13L9.21177 76.4261L7.92202 77.9547Z" fill="#FCFDFF"/>
<path d="M525 52L547 78.2962" stroke="#FCFDFF" stroke-width="2" stroke-linecap="round"/>
<path d="M1152.33 7C1152.33 4.05448 1149.95 1.66667 1147 1.66667C1144.05 1.66667 1141.67 4.05448 1141.67 7C1141.67 9.94552 1144.05 12.3333 1147 12.3333C1149.95 12.3333 1152.33 9.94552 1152.33 7ZM1221 6L1147 6V8L1221 8V6Z" fill="#FCFDFF"/>
<path d="M1220 76L1220 7" stroke="#FCFDFF" stroke-width="2"/>
<path d="M1198 103C1198.55 103 1199 102.552 1199 102C1199 101.448 1198.55 101 1198 101V103ZM1198 101L1117 101V103L1198 103V101Z" fill="#FCFDFF"/>
<path d="M1172 79C1172.55 79 1173 78.5523 1173 78C1173 77.4477 1172.55 77 1172 77V79ZM1172 77L547 77V79L1172 79V77Z" fill="#FCFDFF"/>
<path d="M1220.64 76.6902C1221 76.2681 1221 75.5837 1220.64 75.1616C1220.29 74.7395 1219.71 74.7395 1219.36 75.1616L1220.64 76.6902ZM1198.64 102.764L1220.64 76.6902L1219.36 75.1616L1197.36 101.236L1198.64 102.764Z" fill="#FCFDFF"/>
<path d="M392.707 72.7071C393.098 72.3166 393.098 71.6834 392.707 71.2929L386.343 64.9289C385.953 64.5384 385.319 64.5384 384.929 64.9289C384.538 65.3195 384.538 65.9526 384.929 66.3431L390.586 72L384.929 77.6569C384.538 78.0474 384.538 78.6805 384.929 79.0711C385.319 79.4616 385.953 79.4616 386.343 79.0711L392.707 72.7071ZM297 71H296V73H297V71ZM392 71L297 71V73L392 73V71Z" fill="#FCFDFF"/>
<path d="M272 100.815L296 72" stroke="#FCFDFF" stroke-width="2" stroke-linecap="round"/>
<path d="M270.233 76.4698C269.879 76.8935 269.935 77.5241 270.358 77.8784C270.782 78.2327 271.413 78.1765 271.767 77.7528L270.233 76.4698ZM271.767 77.7528L292.767 52.6415L291.233 51.3585L270.233 76.4698L271.767 77.7528Z" fill="#FCFDFF"/>
<circle cx="267" cy="81" r="5" stroke="#FCFDFF" stroke-width="2"/>
<circle cx="1177" cy="77" r="5" stroke="#FCFDFF" stroke-width="2"/>
<path d="M303.216 93V85.914L301.374 86.544V85.584L304.206 84.558V93H303.216ZM301.128 93V92.052H306.264V93H301.128ZM309.651 93.144V92.316C310.163 92.188 310.635 91.962 311.067 91.638C311.503 91.31 311.865 90.922 312.153 90.474C312.445 90.026 312.633 89.552 312.717 89.052C312.521 89.288 312.261 89.472 311.937 89.604C311.617 89.736 311.249 89.802 310.833 89.802C310.353 89.802 309.921 89.686 309.537 89.454C309.157 89.222 308.855 88.912 308.631 88.524C308.411 88.132 308.301 87.698 308.301 87.222C308.301 86.694 308.425 86.222 308.673 85.806C308.925 85.39 309.263 85.062 309.687 84.822C310.115 84.578 310.597 84.456 311.133 84.456C311.753 84.456 312.267 84.6 312.675 84.888C313.083 85.172 313.385 85.56 313.581 86.052C313.781 86.54 313.881 87.092 313.881 87.708C313.881 88.344 313.781 88.96 313.581 89.556C313.381 90.148 313.097 90.692 312.729 91.188C312.361 91.684 311.917 92.102 311.397 92.442C310.877 92.782 310.295 93.016 309.651 93.144ZM311.079 88.968C311.435 88.968 311.749 88.89 312.021 88.734C312.297 88.574 312.513 88.358 312.669 88.086C312.829 87.81 312.909 87.496 312.909 87.144C312.909 86.808 312.829 86.504 312.669 86.232C312.509 85.96 312.291 85.746 312.015 85.59C311.739 85.43 311.429 85.35 311.085 85.35C310.717 85.35 310.395 85.43 310.119 85.59C309.847 85.746 309.635 85.96 309.483 86.232C309.331 86.504 309.255 86.808 309.255 87.144C309.255 87.676 309.419 88.114 309.747 88.458C310.075 88.798 310.519 88.968 311.079 88.968ZM318.485 93.162C318.253 93.162 318.061 93.082 317.909 92.922C317.757 92.758 317.681 92.572 317.681 92.364C317.681 92.156 317.757 91.97 317.909 91.806C318.061 91.642 318.253 91.56 318.485 91.56C318.713 91.56 318.903 91.642 319.055 91.806C319.211 91.97 319.289 92.156 319.289 92.364C319.289 92.572 319.211 92.758 319.055 92.922C318.903 93.082 318.713 93.162 318.485 93.162ZM325.88 93.144C325.324 93.144 324.858 93.018 324.482 92.766C324.106 92.514 323.806 92.178 323.582 91.758C323.362 91.334 323.204 90.866 323.108 90.354C323.012 89.842 322.964 89.324 322.964 88.8C322.964 88.436 322.99 88.054 323.042 87.654C323.094 87.254 323.184 86.866 323.312 86.49C323.44 86.11 323.614 85.768 323.834 85.464C324.058 85.156 324.338 84.912 324.674 84.732C325.01 84.548 325.412 84.456 325.88 84.456C326.44 84.456 326.908 84.584 327.284 84.84C327.66 85.092 327.958 85.43 328.178 85.854C328.402 86.278 328.562 86.746 328.658 87.258C328.754 87.77 328.802 88.284 328.802 88.8C328.802 89.168 328.774 89.552 328.718 89.952C328.666 90.348 328.576 90.736 328.448 91.116C328.32 91.492 328.144 91.834 327.92 92.142C327.696 92.45 327.416 92.694 327.08 92.874C326.748 93.054 326.348 93.144 325.88 93.144ZM325.88 92.238C326.276 92.238 326.596 92.134 326.84 91.926C327.088 91.714 327.28 91.436 327.416 91.092C327.552 90.748 327.644 90.376 327.692 89.976C327.744 89.572 327.77 89.18 327.77 88.8C327.77 88.38 327.74 87.966 327.68 87.558C327.624 87.15 327.526 86.782 327.386 86.454C327.25 86.122 327.058 85.856 326.81 85.656C326.566 85.456 326.256 85.356 325.88 85.356C325.488 85.356 325.166 85.464 324.914 85.68C324.662 85.892 324.468 86.17 324.332 86.514C324.2 86.858 324.108 87.232 324.056 87.636C324.004 88.036 323.978 88.424 323.978 88.8C323.978 89.224 324.006 89.64 324.062 90.048C324.118 90.456 324.216 90.826 324.356 91.158C324.496 91.486 324.69 91.748 324.938 91.944C325.186 92.14 325.5 92.238 325.88 92.238ZM325.88 89.586C325.66 89.586 325.476 89.508 325.328 89.352C325.18 89.192 325.106 89.01 325.106 88.806C325.106 88.606 325.18 88.428 325.328 88.272C325.476 88.112 325.66 88.032 325.88 88.032C326.104 88.032 326.29 88.112 326.438 88.272C326.586 88.428 326.66 88.606 326.66 88.806C326.66 89.01 326.586 89.192 326.438 89.352C326.29 89.508 326.104 89.586 325.88 89.586ZM334.126 93V90.84H330.286V90.294L334.36 84.6H335.104V89.976H336.28V90.84H335.104V93H334.126ZM331.546 89.976H334.126V86.286L331.546 89.976ZM340.669 93.162C340.437 93.162 340.245 93.082 340.093 92.922C339.941 92.758 339.865 92.572 339.865 92.364C339.865 92.156 339.941 91.97 340.093 91.806C340.245 91.642 340.437 91.56 340.669 91.56C340.897 91.56 341.087 91.642 341.239 91.806C341.395 91.97 341.473 92.156 341.473 92.364C341.473 92.572 341.395 92.758 341.239 92.922C341.087 93.082 340.897 93.162 340.669 93.162ZM345.471 93C345.471 92.472 345.531 92.016 345.651 91.632C345.771 91.248 345.941 90.91 346.161 90.618C346.381 90.326 346.637 90.058 346.929 89.814C347.221 89.566 347.541 89.32 347.889 89.076C348.181 88.864 348.453 88.65 348.705 88.434C348.961 88.218 349.167 87.982 349.323 87.726C349.479 87.47 349.557 87.178 349.557 86.85C349.557 86.422 349.429 86.066 349.173 85.782C348.917 85.498 348.565 85.356 348.117 85.356C347.641 85.356 347.257 85.474 346.965 85.71C346.673 85.946 346.475 86.254 346.371 86.634L345.495 86.238C345.591 85.902 345.759 85.6 345.999 85.332C346.243 85.064 346.545 84.852 346.905 84.696C347.265 84.536 347.669 84.456 348.117 84.456C348.633 84.456 349.073 84.556 349.437 84.756C349.805 84.956 350.087 85.236 350.283 85.596C350.479 85.952 350.577 86.366 350.577 86.838C350.577 87.338 350.473 87.764 350.265 88.116C350.061 88.464 349.789 88.778 349.449 89.058C349.109 89.334 348.739 89.608 348.339 89.88C348.055 90.076 347.779 90.286 347.511 90.51C347.247 90.73 347.027 90.968 346.851 91.224C346.675 91.476 346.575 91.752 346.551 92.052H350.649V93H345.471ZM356.31 93V90.84H352.47V90.294L356.544 84.6H357.288V89.976H358.464V90.84H357.288V93H356.31ZM353.73 89.976H356.31V86.286L353.73 89.976Z" fill="white"/>
<path d="M401.104 76C401.104 75.472 401.164 75.016 401.284 74.632C401.404 74.248 401.574 73.91 401.794 73.618C402.014 73.326 402.27 73.058 402.562 72.814C402.854 72.566 403.174 72.32 403.522 72.076C403.814 71.864 404.086 71.65 404.338 71.434C404.594 71.218 404.8 70.982 404.956 70.726C405.112 70.47 405.19 70.178 405.19 69.85C405.19 69.422 405.062 69.066 404.806 68.782C404.55 68.498 404.198 68.356 403.75 68.356C403.274 68.356 402.89 68.474 402.598 68.71C402.306 68.946 402.108 69.254 402.004 69.634L401.128 69.238C401.224 68.902 401.392 68.6 401.632 68.332C401.876 68.064 402.178 67.852 402.538 67.696C402.898 67.536 403.302 67.456 403.75 67.456C404.266 67.456 404.706 67.556 405.07 67.756C405.438 67.956 405.72 68.236 405.916 68.596C406.112 68.952 406.21 69.366 406.21 69.838C406.21 70.338 406.106 70.764 405.898 71.116C405.694 71.464 405.422 71.778 405.082 72.058C404.742 72.334 404.372 72.608 403.972 72.88C403.688 73.076 403.412 73.286 403.144 73.51C402.88 73.73 402.66 73.968 402.484 74.224C402.308 74.476 402.208 74.752 402.184 75.052H406.282V76H401.104ZM411.091 76.144C410.535 76.144 410.069 76.018 409.693 75.766C409.317 75.514 409.017 75.178 408.793 74.758C408.573 74.334 408.415 73.866 408.319 73.354C408.223 72.842 408.175 72.324 408.175 71.8C408.175 71.436 408.201 71.054 408.253 70.654C408.305 70.254 408.395 69.866 408.523 69.49C408.651 69.11 408.825 68.768 409.045 68.464C409.269 68.156 409.549 67.912 409.885 67.732C410.221 67.548 410.623 67.456 411.091 67.456C411.651 67.456 412.119 67.584 412.495 67.84C412.871 68.092 413.169 68.43 413.389 68.854C413.613 69.278 413.773 69.746 413.869 70.258C413.965 70.77 414.013 71.284 414.013 71.8C414.013 72.168 413.985 72.552 413.929 72.952C413.877 73.348 413.787 73.736 413.659 74.116C413.531 74.492 413.355 74.834 413.131 75.142C412.907 75.45 412.627 75.694 412.291 75.874C411.959 76.054 411.559 76.144 411.091 76.144ZM411.091 75.238C411.487 75.238 411.807 75.134 412.051 74.926C412.299 74.714 412.491 74.436 412.627 74.092C412.763 73.748 412.855 73.376 412.903 72.976C412.955 72.572 412.981 72.18 412.981 71.8C412.981 71.38 412.951 70.966 412.891 70.558C412.835 70.15 412.737 69.782 412.597 69.454C412.461 69.122 412.269 68.856 412.021 68.656C411.777 68.456 411.467 68.356 411.091 68.356C410.699 68.356 410.377 68.464 410.125 68.68C409.873 68.892 409.679 69.17 409.543 69.514C409.411 69.858 409.319 70.232 409.267 70.636C409.215 71.036 409.189 71.424 409.189 71.8C409.189 72.224 409.217 72.64 409.273 73.048C409.329 73.456 409.427 73.826 409.567 74.158C409.707 74.486 409.901 74.748 410.149 74.944C410.397 75.14 410.711 75.238 411.091 75.238ZM411.091 72.586C410.871 72.586 410.687 72.508 410.539 72.352C410.391 72.192 410.317 72.01 410.317 71.806C410.317 71.606 410.391 71.428 410.539 71.272C410.687 71.112 410.871 71.032 411.091 71.032C411.315 71.032 411.501 71.112 411.649 71.272C411.797 71.428 411.871 71.606 411.871 71.806C411.871 72.01 411.797 72.192 411.649 72.352C411.501 72.508 411.315 72.586 411.091 72.586ZM418.485 76.162C418.253 76.162 418.061 76.082 417.909 75.922C417.757 75.758 417.681 75.572 417.681 75.364C417.681 75.156 417.757 74.97 417.909 74.806C418.061 74.642 418.253 74.56 418.485 74.56C418.713 74.56 418.903 74.642 419.055 74.806C419.211 74.97 419.289 75.156 419.289 75.364C419.289 75.572 419.211 75.758 419.055 75.922C418.903 76.082 418.713 76.162 418.485 76.162ZM425.88 76.144C425.324 76.144 424.858 76.018 424.482 75.766C424.106 75.514 423.806 75.178 423.582 74.758C423.362 74.334 423.204 73.866 423.108 73.354C423.012 72.842 422.964 72.324 422.964 71.8C422.964 71.436 422.99 71.054 423.042 70.654C423.094 70.254 423.184 69.866 423.312 69.49C423.44 69.11 423.614 68.768 423.834 68.464C424.058 68.156 424.338 67.912 424.674 67.732C425.01 67.548 425.412 67.456 425.88 67.456C426.44 67.456 426.908 67.584 427.284 67.84C427.66 68.092 427.958 68.43 428.178 68.854C428.402 69.278 428.562 69.746 428.658 70.258C428.754 70.77 428.802 71.284 428.802 71.8C428.802 72.168 428.774 72.552 428.718 72.952C428.666 73.348 428.576 73.736 428.448 74.116C428.32 74.492 428.144 74.834 427.92 75.142C427.696 75.45 427.416 75.694 427.08 75.874C426.748 76.054 426.348 76.144 425.88 76.144ZM425.88 75.238C426.276 75.238 426.596 75.134 426.84 74.926C427.088 74.714 427.28 74.436 427.416 74.092C427.552 73.748 427.644 73.376 427.692 72.976C427.744 72.572 427.77 72.18 427.77 71.8C427.77 71.38 427.74 70.966 427.68 70.558C427.624 70.15 427.526 69.782 427.386 69.454C427.25 69.122 427.058 68.856 426.81 68.656C426.566 68.456 426.256 68.356 425.88 68.356C425.488 68.356 425.166 68.464 424.914 68.68C424.662 68.892 424.468 69.17 424.332 69.514C424.2 69.858 424.108 70.232 424.056 70.636C424.004 71.036 423.978 71.424 423.978 71.8C423.978 72.224 424.006 72.64 424.062 73.048C424.118 73.456 424.216 73.826 424.356 74.158C424.496 74.486 424.69 74.748 424.938 74.944C425.186 75.14 425.5 75.238 425.88 75.238ZM425.88 72.586C425.66 72.586 425.476 72.508 425.328 72.352C425.18 72.192 425.106 72.01 425.106 71.806C425.106 71.606 425.18 71.428 425.328 71.272C425.476 71.112 425.66 71.032 425.88 71.032C426.104 71.032 426.29 71.112 426.438 71.272C426.586 71.428 426.66 71.606 426.66 71.806C426.66 72.01 426.586 72.192 426.438 72.352C426.29 72.508 426.104 72.586 425.88 72.586ZM434.126 76V73.84H430.286V73.294L434.36 67.6H435.104V72.976H436.28V73.84H435.104V76H434.126ZM431.546 72.976H434.126V69.286L431.546 72.976ZM440.669 76.162C440.437 76.162 440.245 76.082 440.093 75.922C439.941 75.758 439.865 75.572 439.865 75.364C439.865 75.156 439.941 74.97 440.093 74.806C440.245 74.642 440.437 74.56 440.669 74.56C440.897 74.56 441.087 74.642 441.239 74.806C441.395 74.97 441.473 75.156 441.473 75.364C441.473 75.572 441.395 75.758 441.239 75.922C441.087 76.082 440.897 76.162 440.669 76.162ZM445.471 76C445.471 75.472 445.531 75.016 445.651 74.632C445.771 74.248 445.941 73.91 446.161 73.618C446.381 73.326 446.637 73.058 446.929 72.814C447.221 72.566 447.541 72.32 447.889 72.076C448.181 71.864 448.453 71.65 448.705 71.434C448.961 71.218 449.167 70.982 449.323 70.726C449.479 70.47 449.557 70.178 449.557 69.85C449.557 69.422 449.429 69.066 449.173 68.782C448.917 68.498 448.565 68.356 448.117 68.356C447.641 68.356 447.257 68.474 446.965 68.71C446.673 68.946 446.475 69.254 446.371 69.634L445.495 69.238C445.591 68.902 445.759 68.6 445.999 68.332C446.243 68.064 446.545 67.852 446.905 67.696C447.265 67.536 447.669 67.456 448.117 67.456C448.633 67.456 449.073 67.556 449.437 67.756C449.805 67.956 450.087 68.236 450.283 68.596C450.479 68.952 450.577 69.366 450.577 69.838C450.577 70.338 450.473 70.764 450.265 71.116C450.061 71.464 449.789 71.778 449.449 72.058C449.109 72.334 448.739 72.608 448.339 72.88C448.055 73.076 447.779 73.286 447.511 73.51C447.247 73.73 447.027 73.968 446.851 74.224C446.675 74.476 446.575 74.752 446.551 75.052H450.649V76H445.471ZM456.31 76V73.84H452.47V73.294L456.544 67.6H457.288V72.976H458.464V73.84H457.288V76H456.31ZM453.73 72.976H456.31V69.286L453.73 72.976Z" fill="white"/>
<path d="M963 98.1536L967.308 98.1543L960.121 105.346L956 105.153L963 98.1536Z" fill="white"/>
<path d="M963 98.1536L967.308 98.1543L960.121 105.346L956 105.153L963 98.1536Z" fill="white"/>
<path d="M970 98.1536L974.308 98.1543L967.121 105.346L963 105.153L970 98.1536Z" fill="white"/>
<path d="M970 98.1536L974.308 98.1543L967.121 105.346L963 105.153L970 98.1536Z" fill="white"/>
<path d="M977 98.1536L981.308 98.1543L974.121 105.346L970 105.153L977 98.1536Z" fill="white"/>
<path d="M977 98.1536L981.308 98.1543L974.121 105.346L970 105.153L977 98.1536Z" fill="white"/>
<path d="M985 98.1536L989.308 98.1543L982.121 105.346L978 105.153L985 98.1536Z" fill="white"/>
<path d="M985 98.1536L989.308 98.1543L982.121 105.346L978 105.153L985 98.1536Z" fill="white"/>
<path d="M992 98.1536L996.308 98.1543L989.121 105.346L985 105.153L992 98.1536Z" fill="white"/>
<path d="M992 98.1536L996.308 98.1543L989.121 105.346L985 105.153L992 98.1536Z" fill="white"/>
<path d="M999 98.1536L1003.31 98.1543L996.121 105.346L992 105.153L999 98.1536Z" fill="white"/>
<path d="M999 98.1536L1003.31 98.1543L996.121 105.346L992 105.153L999 98.1536Z" fill="white"/>
<path d="M1006 98.1536L1010.31 98.1543L1003.12 105.346L999 105.153L1006 98.1536Z" fill="white"/>
<path d="M1006 98.1536L1010.31 98.1543L1003.12 105.346L999 105.153L1006 98.1536Z" fill="white"/>
<path d="M1014 98.1536L1018.31 98.1543L1011.12 105.346L1007 105.153L1014 98.1536Z" fill="white"/>
<path d="M1014 98.1536L1018.31 98.1543L1011.12 105.346L1007 105.153L1014 98.1536Z" fill="white"/>
<path d="M1021 98.1536L1025.31 98.1543L1018.12 105.346L1014 105.153L1021 98.1536Z" fill="white"/>
<path d="M1021 98.1536L1025.31 98.1543L1018.12 105.346L1014 105.153L1021 98.1536Z" fill="white"/>
<path d="M1028 98.1536L1032.31 98.1543L1025.12 105.346L1021 105.153L1028 98.1536Z" fill="white"/>
<path d="M1028 98.1536L1032.31 98.1543L1025.12 105.346L1021 105.153L1028 98.1536Z" fill="white"/>
<path d="M1035 98.1536L1039.31 98.1543L1032.12 105.346L1028 105.153L1035 98.1536Z" fill="white"/>
<path d="M1035 98.1536L1039.31 98.1543L1032.12 105.346L1028 105.153L1035 98.1536Z" fill="white"/>
<path d="M1042 98.1536L1046.31 98.1543L1039.12 105.346L1035 105.153L1042 98.1536Z" fill="white"/>
<path d="M1042 98.1536L1046.31 98.1543L1039.12 105.346L1035 105.153L1042 98.1536Z" fill="white"/>
<path d="M1050 98.1536L1054.31 98.1543L1047.12 105.346L1043 105.153L1050 98.1536Z" fill="white"/>
<path d="M1050 98.1536L1054.31 98.1543L1047.12 105.346L1043 105.153L1050 98.1536Z" fill="white"/>
<path d="M1057 98.1536L1061.31 98.1543L1054.12 105.346L1050 105.153L1057 98.1536Z" fill="white"/>
<path d="M1057 98.1536L1061.31 98.1543L1054.12 105.346L1050 105.153L1057 98.1536Z" fill="white"/>
<path d="M1064 98.1536L1068.31 98.1543L1061.12 105.346L1057 105.153L1064 98.1536Z" fill="white"/>
<path d="M1064 98.1536L1068.31 98.1543L1061.12 105.346L1057 105.153L1064 98.1536Z" fill="white"/>
<path d="M1072 98.1536L1076.31 98.1543L1069.12 105.346L1065 105.153L1072 98.1536Z" fill="white"/>
<path d="M1072 98.1536L1076.31 98.1543L1069.12 105.346L1065 105.153L1072 98.1536Z" fill="white"/>
<path d="M1079 98.1536L1083.31 98.1543L1076.12 105.346L1072 105.153L1079 98.1536Z" fill="white"/>
<path d="M1079 98.1536L1083.31 98.1543L1076.12 105.346L1072 105.153L1079 98.1536Z" fill="white"/>
<path d="M1086 98.1536L1090.31 98.1543L1083.12 105.346L1079 105.153L1086 98.1536Z" fill="white"/>
<path d="M1086 98.1536L1090.31 98.1543L1083.12 105.346L1079 105.153L1086 98.1536Z" fill="white"/>
<path d="M1093 98.1536L1097.31 98.1543L1090.12 105.346L1086 105.153L1093 98.1536Z" fill="white"/>
<path d="M1093 98.1536L1097.31 98.1543L1090.12 105.346L1086 105.153L1093 98.1536Z" fill="white"/>
<path d="M1100 98.1536L1104.31 98.1543L1097.12 105.346L1093 105.153L1100 98.1536Z" fill="white"/>
<path d="M1100 98.1536L1104.31 98.1543L1097.12 105.346L1093 105.153L1100 98.1536Z" fill="white"/>
<path d="M1107 98.1536L1111.31 98.1543L1104.12 105.346L1100 105.153L1107 98.1536Z" fill="white"/>
<path d="M1107 98.1536L1111.31 98.1543L1104.12 105.346L1100 105.153L1107 98.1536Z" fill="white"/>
<path d="M7.99987 102L7.99993 81L25.9999 102L7.99987 102Z" fill="#FCFDFF"/>
<path d="M1221 103L1221 79.0001L1201 103L1221 103Z" fill="#FCFDFF"/>
</svg>
